<svg xmlns="http://www.w3.org/2000/svg" width="1200" height="800" viewBox="0 0 1200 800" role="img" aria-labelledby="title desc">
  <title id="title">Content systems cover</title>
  <desc id="desc">A clean content list with filters and topic badges.</desc>
  <rect width="1200" height="800" fill="#f8fafc"/>
  <rect x="130" y="110" width="940" height="580" rx="32" fill="#ffffff" stroke="#e5e7eb" stroke-width="3"/>
  <rect x="190" y="180" width="220" height="440" rx="20" fill="#f8fafc" stroke="#e5e7eb" stroke-width="3"/>
  <rect x="460" y="180" width="510" height="120" rx="20" fill="#ffffff" stroke="#e5e7eb" stroke-width="3"/>
  <rect x="460" y="340" width="510" height="120" rx="20" fill="#ffffff" stroke="#e5e7eb" stroke-width="3"/>
  <rect x="460" y="500" width="510" height="120" rx="20" fill="#ffffff" stroke="#e5e7eb" stroke-width="3"/>
  <rect x="230" y="230" width="92" height="28" rx="10" fill="#1e3a8a" opacity=".18"/>
  <rect x="230" y="282" width="118" height="28" rx="10" fill="#10b981" opacity=".18"/>
  <rect x="230" y="334" width="72" height="28" rx="10" fill="#111827" opacity=".10"/>
  <rect x="510" y="220" width="240" height="16" rx="8" fill="#111827" opacity=".20"/>
  <rect x="510" y="260" width="340" height="12" rx="6" fill="#111827" opacity=".10"/>
  <rect x="510" y="380" width="270" height="16" rx="8" fill="#111827" opacity=".20"/>
  <rect x="510" y="420" width="300" height="12" rx="6" fill="#111827" opacity=".10"/>
  <rect x="510" y="540" width="220" height="16" rx="8" fill="#111827" opacity=".20"/>
  <rect x="510" y="580" width="330" height="12" rx="6" fill="#111827" opacity=".10"/>
  <circle cx="905" cy="240" r="24" fill="#1e3a8a" opacity=".18"/>
  <circle cx="905" cy="400" r="24" fill="#10b981" opacity=".18"/>
  <circle cx="905" cy="560" r="24" fill="#f59e0b" opacity=".22"/>
</svg>
