<svg xmlns="http://www.w3.org/2000/svg" width="1200" height="800" viewBox="0 0 1200 800" role="img" aria-labelledby="title desc">
  <title id="title">Frontend architecture cover</title>
  <desc id="desc">A clean interface diagram with layered panels.</desc>
  <rect width="1200" height="800" fill="#f8fafc"/>
  <rect x="120" y="120" width="960" height="560" rx="32" fill="#ffffff" stroke="#e5e7eb" stroke-width="3"/>
  <rect x="180" y="180" width="300" height="440" rx="18" fill="#eff6ff" stroke="#bfdbfe" stroke-width="3"/>
  <rect x="520" y="180" width="220" height="180" rx="18" fill="#ecfdf5" stroke="#a7f3d0" stroke-width="3"/>
  <rect x="780" y="180" width="240" height="180" rx="18" fill="#f8fafc" stroke="#e5e7eb" stroke-width="3"/>
  <rect x="520" y="400" width="500" height="220" rx="18" fill="#ffffff" stroke="#d1d5db" stroke-width="3"/>
  <path d="M480 400h40M740 270h40M630 360v40" stroke="#1e3a8a" stroke-width="6" stroke-linecap="round"/>
  <rect x="220" y="230" width="220" height="18" rx="9" fill="#1e3a8a" opacity=".28"/>
  <rect x="220" y="280" width="180" height="14" rx="7" fill="#6b7280" opacity=".28"/>
  <rect x="220" y="320" width="210" height="14" rx="7" fill="#6b7280" opacity=".18"/>
  <circle cx="600" cy="270" r="42" fill="#10b981" opacity=".18"/>
  <rect x="840" y="240" width="120" height="20" rx="10" fill="#1e3a8a" opacity=".22"/>
  <rect x="570" y="470" width="390" height="16" rx="8" fill="#111827" opacity=".16"/>
  <rect x="570" y="520" width="300" height="16" rx="8" fill="#111827" opacity=".12"/>
</svg>
