<svg xmlns="http://www.w3.org/2000/svg" width="1200" height="800" viewBox="0 0 1200 800" role="img" aria-labelledby="title desc">
  <title id="title">Project case studies cover</title>
  <desc id="desc">Structured case study notes on a clean board.</desc>
  <rect width="1200" height="800" fill="#f8fafc"/>
  <rect x="140" y="110" width="920" height="580" rx="30" fill="#ffffff" stroke="#e5e7eb" stroke-width="3"/>
  <rect x="210" y="180" width="760" height="76" rx="16" fill="#eff6ff"/>
  <rect x="250" y="210" width="280" height="18" rx="9" fill="#1e3a8a" opacity=".38"/>
  <rect x="210" y="310" width="220" height="250" rx="18" fill="#ffffff" stroke="#e5e7eb" stroke-width="3"/>
  <rect x="490" y="310" width="220" height="250" rx="18" fill="#ffffff" stroke="#e5e7eb" stroke-width="3"/>
  <rect x="770" y="310" width="200" height="250" rx="18" fill="#ffffff" stroke="#e5e7eb" stroke-width="3"/>
  <circle cx="270" cy="370" r="24" fill="#10b981" opacity=".22"/>
  <circle cx="550" cy="370" r="24" fill="#1e3a8a" opacity=".20"/>
  <circle cx="830" cy="370" r="24" fill="#f59e0b" opacity=".24"/>
  <rect x="250" y="430" width="130" height="14" rx="7" fill="#111827" opacity=".18"/>
  <rect x="250" y="470" width="100" height="14" rx="7" fill="#111827" opacity=".12"/>
  <rect x="530" y="430" width="130" height="14" rx="7" fill="#111827" opacity=".18"/>
  <rect x="530" y="470" width="110" height="14" rx="7" fill="#111827" opacity=".12"/>
  <rect x="810" y="430" width="120" height="14" rx="7" fill="#111827" opacity=".18"/>
  <rect x="810" y="470" width="90" height="14" rx="7" fill="#111827" opacity=".12"/>
</svg>
